<mxfile modified="2021-08-31T16:35:57.103Z" host="app.diagrams.net" agent="5.0 (Windows NT 10.0; Win64; x64) AppleWebKit/537.36 (KHTML, like Gecko) Chrome/92.0.4515.131 Safari/537.36 Edg/92.0.902.73" etag="P68u1lQIvHPwGzn9NBXz" version="14.9.7" type="github">
  <diagram id="7gcUSTIZ7YSJ5vT40chW" name="Page-1">
    <mxGraphModel dx="1038" dy="2201" grid="1" gridSize="10" guides="1" tooltips="1" connect="1" arrows="1" fold="1" page="1" pageScale="1" pageWidth="1169" pageHeight="827" math="0" shadow="0">
      <root>
        <mxCell id="0" />
        <mxCell id="1" parent="0" />
        <mxCell id="GKQmxp8SML825BiT_JHe-6" value="" style="shape=image;verticalLabelPosition=bottom;labelBackgroundColor=#ffffff;verticalAlign=top;aspect=fixed;imageAspect=0;image=https://miro.medium.com/max/510/1*0GPJNdkUzRuIk_OeMTyvHA.png;" vertex="1" parent="1">
          <mxGeometry x="170" y="-1306.9" width="105" height="72.47" as="geometry" />
        </mxCell>
        <mxCell id="GKQmxp8SML825BiT_JHe-15" value="" style="shape=flexArrow;endArrow=classic;html=1;exitX=0.5;exitY=0;exitDx=0;exitDy=0;entryX=0.5;entryY=1;entryDx=0;entryDy=0;" edge="1" parent="1">
          <mxGeometry width="50" height="50" relative="1" as="geometry">
            <mxPoint x="221.25" y="-1310" as="sourcePoint" />
            <mxPoint x="221.25" y="-1230" as="targetPoint" />
            <Array as="points">
              <mxPoint x="221.25" y="-1350" />
              <mxPoint x="298.5" y="-1350" />
              <mxPoint x="298.25" y="-1150" />
              <mxPoint x="251.25" y="-1150" />
              <mxPoint x="221.25" y="-1150" />
            </Array>
          </mxGeometry>
        </mxCell>
        <mxCell id="GKQmxp8SML825BiT_JHe-18" value="" style="swimlane;startSize=0;fillColor=#121C21;" vertex="1" parent="1">
          <mxGeometry x="130" y="-1360" width="270" height="250" as="geometry" />
        </mxCell>
        <mxCell id="GKQmxp8SML825BiT_JHe-9" value="Lrp_silver" style="text;html=1;strokeColor=none;fillColor=none;align=center;verticalAlign=middle;whiteSpace=wrap;rounded=0;" vertex="1" parent="GKQmxp8SML825BiT_JHe-18">
          <mxGeometry x="90" y="220" width="90" height="20" as="geometry" />
        </mxCell>
        <mxCell id="GKQmxp8SML825BiT_JHe-19" value="Transformations" style="text;html=1;align=center;verticalAlign=middle;resizable=0;points=[];autosize=1;strokeColor=none;" vertex="1" parent="1">
          <mxGeometry x="300" y="-1250" width="100" height="20" as="geometry" />
        </mxCell>
      </root>
    </mxGraphModel>
  </diagram>
</mxfile>
